<?xml version="1.0" encoding="UTF-8" standalone="no"?>
<!-- Created with Inkscape (http://www.inkscape.org/) -->

<svg
   version="1.1"
   id="svg827"
   xml:space="preserve"
   width="666.66669"
   height="666.66669"
   viewBox="0 0 666.66669 666.66669"
   sodipodi:docname="tooth.svg"
   inkscape:version="1.1 (c68e22c387, 2021-05-23)"
   xmlns:inkscape="http://www.inkscape.org/namespaces/inkscape"
   xmlns:sodipodi="http://sodipodi.sourceforge.net/DTD/sodipodi-0.dtd"
   xmlns="http://www.w3.org/2000/svg"
   xmlns:svg="http://www.w3.org/2000/svg"><defs
     id="defs831" /><sodipodi:namedview
     id="namedview829"
     pagecolor="#ffffff"
     bordercolor="#666666"
     borderopacity="1.0"
     inkscape:pageshadow="2"
     inkscape:pageopacity="0"
     inkscape:pagecheckerboard="0"
     showgrid="false"
     inkscape:zoom="0.86125603"
     inkscape:cx="260.08526"
     inkscape:cy="322.20384"
     inkscape:window-width="1920"
     inkscape:window-height="1001"
     inkscape:window-x="-9"
     inkscape:window-y="-9"
     inkscape:window-maximized="1"
     inkscape:current-layer="g835" /><g
     id="g833"
     inkscape:groupmode="layer"
     inkscape:label="ink_ext_XXXXXX"
     transform="matrix(1.3333333,0,0,-1.3333333,0,666.66667)"><g
       id="g835"
       transform="scale(0.1)"><path
         d="m 2388.95,3481.57 c -2.83,0 -5.64,1.25 -7.55,3.7 -32.6,41.86 -171.87,227.19 -109.92,262.86 8.8,5.07 17.47,7.28 25.89,7.28 43.29,0 80.24,-58.43 96.56,-88.89 1.82,-3.39 5.13,-5.06 8.44,-5.06 3.48,0 6.96,1.85 8.72,5.49 15.34,31.83 50.77,93.74 94.17,93.74 10.67,0 21.8,-3.73 33.25,-12.56 65.88,-50.82 -103.97,-225.36 -142.78,-263.76 -1.9,-1.88 -4.35,-2.8 -6.78,-2.8"
         style="fill:#99dde9;fill-opacity:1;fill-rule:nonzero;stroke:none"
         id="path853" /><path
         d="m 649.016,2549.56 c -1.993,0 -4.012,0.62 -5.758,1.93 -42.395,31.91 -225.176,174.51 -174.668,225.1 11.031,11.05 23.519,15.51 36.48,15.51 38.766,0 81.797,-39.85 103.012,-62.36 1.961,-2.08 4.461,-3.02 6.926,-3.02 4.355,0 8.601,2.96 9.527,7.91 7.106,37.9 27.965,116.65 78.574,116.65 7.149,0 14.883,-1.57 23.262,-5.05 76.856,-31.88 -41.601,-244.68 -69.043,-291.87 -1.808,-3.11 -5.023,-4.8 -8.312,-4.8"
         style="fill:#99dde9;fill-opacity:1;fill-rule:nonzero;stroke:none"
         id="path855" /><path
         d="m 1526.1,3964.5 c -1.41,0 -2.85,0.31 -4.22,0.98 -47.67,23.29 -254.18,128.65 -214.18,187.9 11.43,16.92 27.44,23.25 44.98,23.25 35.96,0 78.35,-26.59 100.87,-42.81 1.75,-1.26 3.68,-1.83 5.57,-1.83 5.01,0 9.68,4.02 9.66,9.76 -0.23,41.02 6.07,130.35 65.07,130.35 4.3,0 8.88,-0.47 13.75,-1.47 81.52,-16.74 5.55,-248.13 -12.46,-299.66 -1.4,-4.02 -5.11,-6.47 -9.04,-6.47"
         style="fill:#99dde9;fill-opacity:1;fill-rule:nonzero;stroke:none"
         id="path859" /><path
         d="m 2769.2,389.77 c -757.13,0 -1370.9,37.742 -1370.9,84.281 0,31.109 138.01,73.828 543.74,98.769 69.9,-71.941 127.04,-100.14 174.63,-100.14 9.3,0 18.24,1.082 26.83,3.121 v 0 0 c 18.61,4.398 35.61,13.398 51.2,25.601 13.05,10.239 13.71,41.047 7.78,83.469 111.11,3.719 236.01,6.34 375.99,7.551 0.54,-6.051 1.35,-11.652 2.43,-16.723 8.09,-37.707 28.85,-58.32 60.18,-58.32 33.67,0 79.54,23.812 134.97,75.801 1.06,0 2.13,0 3.19,0 1.17,-64.258 10.65,-79.7 153.76,-117.18 166.01,-43.5 705.5,-49.398 804.3,-55.301 7.05,-0.429 13.77,-0.648 20.19,-0.648 71.11,0 104.83,27.578 123.46,115.008 162.89,-20.36 259.14,-42.7 259.14,-61.008 0,-46.539 -613.77,-84.281 -1370.89,-84.281"
         style="fill:#41bbca;fill-opacity:1;fill-rule:nonzero;stroke:none"
         id="path863" /><path
         d="m 1244.91,2885.1 c -2.61,0.4 -5.21,-0.2 -7.21,-1.5 -2.1,-0.5 -5.5,-1 -9.89,-1.3 -57.21,-4.7 -293.908,9.3 -447.306,134.4 -110.703,90.2 -157.805,219.1 -140,383.1 0.605,5.5 -3.399,10.5 -8.895,11.1 -5.5,0.6 -10.402,-3.4 -11.007,-8.9 -44.891,-414.6 321.101,-510.4 480.508,-532.3 47.69,-6.6 84.3,-7.7 101.89,-7.8 h 3.51 c 6.09,0 11.4,0.1 16,0.3 27.29,1 29.5,5.1 30.59,11.4 0.91,5.4 -2.79,10.6 -8.19,11.5"
         style="fill:#ffffff;fill-opacity:1;fill-rule:nonzero;stroke:none"
         id="path865" /><path
         d="m 4329.3,3944.7 c -40.29,-164.8 -80.59,-413.8 -252.69,-897.3 -80.9,-227 -157.71,-664.1 -216.41,-1063.8 -52.6,-357.8 -90.69,-685.7 -104.2,-806.3 -3.49,-31.6 -5.4,-49 -5.4,-49 l -355.19,58.6 c 0,0 5.09,29.1 13.8,79.5 40.7,233.8 160.89,925 224.19,1286.6 76.91,439.5 223.4,545.7 263.71,758.1 5,26.1 11.29,60.3 18.6,100.1 52.1,283.9 153.59,855.8 153.59,855.8 0,0 117.21,131.9 241.7,76.9 124.5,-54.9 58.61,-234.4 18.3,-399.2"
         style="fill:#2fb4c5;fill-opacity:1;fill-rule:nonzero;stroke:none"
         id="path867" /><path
         d="m 3776.07,1349.92 c -75.88,7.62 -207.8,21.21 -346.1,35.81 5.56,31.96 11.66,66.98 18.16,104.35 122.39,-49.85 242.15,-99.35 328.38,-136.46 -0.15,-1.24 -0.29,-2.46 -0.44,-3.7 m 59.31,459.74 c -80.63,48.4 -198.12,95.92 -308.27,134.1 38.68,222.1 78.12,448.33 106.29,609.24 76.91,439.5 223.4,545.7 263.71,758.1 5,26.1 11.29,60.3 18.6,100.1 l 41.89,4.6 c 0,0 41.01,-90.2 8.21,-200.9 C 3933,3104.2 3695.2,2513.8 3691.11,2251.41 3688.4,2076.5 3791.3,2009 3860.2,1983.6 c -8.68,-59.07 -16.97,-117.3 -24.82,-173.94"
         style="fill:#239bb6;fill-opacity:1;fill-rule:nonzero;stroke:none"
         id="path869" /><path
         d="m 3616.92,4387.37 c -4.51,1.51 -40.6,18.04 -42.1,-10.53 -1.5,-28.57 24.05,-48.12 15.04,-55.64 -9.02,-7.52 -51.13,-4.51 -40.61,-34.58 10.53,-30.08 34.59,-91.73 22.56,-109.78 -12.03,-18.04 -66.17,-31.57 -64.67,-67.67 1.51,-36.08 40.61,-60.14 27.08,-75.18 -13.54,-15.04 -61.66,-10.53 -57.14,-22.56 4.51,-12.03 12.03,-21.05 12.03,-21.05 0,0 -43.62,-4.51 -28.58,-18.05 15.04,-13.53 31.59,-45.11 27.07,-48.12 -4.51,-3.01 -54.14,6.02 -55.64,-7.52 -1.5,-13.53 28.57,-52.63 28.57,-61.65 0,-9.02 -48.12,-15.04 -48.12,-34.59 0,-19.54 24.06,-37.59 22.56,-45.11 -1.51,-7.52 -52.63,-6.02 -57.14,-24.06 -4.51,-18.04 40.59,-46.61 37.59,-57.14 -3.01,-10.53 -37.59,-36.09 -40.6,-57.14 -3.01,-21.06 55.64,-76.69 46.61,-87.22 -9.02,-10.53 -61.65,28.57 -64.66,-6.02 -3,-34.58 46.62,-64.66 39.11,-78.19 -7.52,-13.54 -64.67,-37.6 -51.14,-60.15 13.54,-22.56 299.25,-139.85 299.25,-139.85 l 157.89,82.7 230.08,818.05 -225.57,135.33 -189.47,85.72"
         style="fill:#ffffff;fill-opacity:1;fill-rule:nonzero;stroke:none"
         id="path871" /><path
         d="m 4292.11,4173.84 c 0,0 -190.98,105.26 -213.53,114.29 -22.56,9.01 -487.22,117.28 -484.22,103.75 3.01,-13.53 387.97,-218.04 403.01,-218.04 15.04,0 312.78,-7.52 294.74,0"
         style="fill:#76d2dd;fill-opacity:1;fill-rule:nonzero;stroke:none"
         id="path873" /><path
         d="m 4016.92,4187.37 c 0,0 -52.63,-19.55 -46.61,-33.08 6.01,-13.54 24.05,-37.6 15.03,-52.64 -9.02,-15.03 -37.59,-13.52 -39.09,-37.59 -1.51,-24.06 22.55,-36.09 15.04,-49.62 -7.52,-13.53 -49.63,-6.02 -52.64,-36.09 -3.01,-30.08 27.07,-37.59 16.54,-55.64 -10.53,-18.05 -48.11,-15.04 -55.63,-36.09 -7.52,-21.06 25.55,-30.08 18.03,-55.64 -7.51,-25.56 -61.65,-21.06 -63.15,-57.14 -1.5,-36.09 28.57,-57.15 19.55,-70.68 -9.02,-13.53 -55.64,1.51 -57.14,-25.56 -1.5,-27.07 28.57,-72.18 21.05,-82.71 -7.52,-10.53 -52.63,-1.5 -67.67,-49.62 -15.04,-48.12 27.07,-84.21 19.55,-99.25 -7.52,-15.04 -72.18,-21.06 -64.67,-46.62 7.52,-25.56 48.13,-12.03 40.61,-34.58 -7.52,-22.56 -91.73,-99.25 -91.73,-99.25 0,0 341.35,6.01 377.44,-1.5 36.1,-7.52 49.63,0 57.15,36.08 7.51,36.09 196.98,669.17 209.01,738.35 12.04,69.17 40.61,120.3 4.52,135.34 -36.09,15.04 -275.19,13.53 -275.19,13.53"
         style="fill:#96dce4;fill-opacity:1;fill-rule:nonzero;stroke:none"
         id="path875" /><path
         d="m 3584.53,3377.52 -1.37,0.05 c -19.66,1.31 -30.5,28.34 -36.11,50.56 -9.38,-11.72 -22.58,-24.29 -37.12,-26.17 -6.81,-0.91 -17,0.16 -26.59,10.28 -31.64,33.4 -1.39,91.79 -0.09,94.26 2.59,4.88 8.63,6.73 13.49,4.17 4.9,-2.57 6.77,-8.61 4.2,-13.5 -0.25,-0.48 -24.87,-48.18 -3.09,-71.17 4.06,-4.29 7.24,-4.52 9.5,-4.21 12.96,1.67 29.93,25.46 36.12,36.73 2.07,3.77 6.31,5.8 10.58,5.02 4.24,-0.78 7.5,-4.18 8.09,-8.44 4.09,-29.11 14.95,-57.08 22.35,-57.58 h 0.14 c 6.37,0 20.71,28.79 28.55,62.94 1.24,5.38 6.62,8.7 11.98,7.51 5.38,-1.24 8.74,-6.6 7.51,-11.99 -5.46,-23.8 -20.95,-78.45 -48.14,-78.46"
         style="fill:#213e58;fill-opacity:1;fill-rule:nonzero;stroke:none"
         id="path877" /><path
         d="m 3662.56,3517.01 c 0,-15.12 -10.22,-27.38 -22.82,-27.38 -12.6,0 -22.82,12.26 -22.82,27.38 0,15.12 10.22,27.38 22.82,27.38 12.6,0 22.82,-12.26 22.82,-27.38"
         style="fill:#213e58;fill-opacity:1;fill-rule:nonzero;stroke:none"
         id="path879" /><path
         d="m 3545.83,3571.62 c 0,-15.12 -10.22,-27.38 -22.82,-27.38 -12.6,0 -22.82,12.26 -22.82,27.38 0,15.12 10.22,27.38 22.82,27.38 12.6,0 22.82,-12.26 22.82,-27.38"
         style="fill:#213e58;fill-opacity:1;fill-rule:nonzero;stroke:none"
         id="path881" /><path
         d="m 4009.42,3326.73 -0.44,0.02 c -228.89,19.71 -233.1,23.92 -234.69,25.51 -1.95,1.95 -1.95,5.12 0,7.07 1.66,1.65 4.16,1.91 6.1,0.76 10.95,-3.6 142.82,-15.92 229.45,-23.38 2.75,-0.23 4.79,-2.65 4.55,-5.41 -0.22,-2.6 -2.41,-4.57 -4.97,-4.57"
         style="fill:#2fb4c5;fill-opacity:1;fill-rule:nonzero;stroke:none"
         id="path883" /><path
         d="m 4037.97,3439.51 c -1.38,0 -2.64,0.57 -3.54,1.48 -12.94,5.34 -142.65,23.99 -222.68,34.66 -2.73,0.36 -4.65,2.88 -4.29,5.61 0.37,2.75 2.91,4.64 5.62,4.3 229.89,-30.65 229.89,-35.47 229.89,-41.05 0,-2.76 -2.23,-5 -5,-5"
         style="fill:#2fb4c5;fill-opacity:1;fill-rule:nonzero;stroke:none"
         id="path885" /><path
         d="m 4066.56,3586.88 -0.66,0.04 -209.02,27.07 c -2.73,0.35 -4.67,2.86 -4.32,5.6 0.37,2.74 2.83,4.62 5.61,4.32 l 209.02,-27.07 c 2.74,-0.35 4.67,-2.86 4.32,-5.6 -0.33,-2.52 -2.48,-4.36 -4.95,-4.36"
         style="fill:#2fb4c5;fill-opacity:1;fill-rule:nonzero;stroke:none"
         id="path887" /><path
         d="m 4095.13,3674.1 -0.82,0.07 -201.5,33.08 c -2.73,0.44 -4.57,3.02 -4.12,5.74 0.45,2.73 3.02,4.61 5.74,4.12 l 201.5,-33.08 c 2.73,-0.44 4.57,-3.02 4.12,-5.74 -0.4,-2.45 -2.51,-4.19 -4.92,-4.19"
         style="fill:#2fb4c5;fill-opacity:1;fill-rule:nonzero;stroke:none"
         id="path889" /><path
         d="m 4144.74,3756.8 -1.12,0.13 -228.57,52.63 c -2.68,0.62 -4.36,3.31 -3.75,6 0.63,2.69 3.29,4.36 6,3.75 l 228.57,-52.63 c 2.68,-0.62 4.36,-3.31 3.75,-6 -0.54,-2.31 -2.59,-3.88 -4.88,-3.88"
         style="fill:#2fb4c5;fill-opacity:1;fill-rule:nonzero;stroke:none"
         id="path891" /><path
         d="m 4170.31,3857.56 -1.2,0.14 -224.06,55.64 c -2.69,0.67 -4.32,3.38 -3.66,6.06 0.67,2.67 3.36,4.3 6.06,3.65 l 224.06,-55.64 c 2.69,-0.66 4.32,-3.38 3.65,-6.06 -0.56,-2.27 -2.61,-3.79 -4.85,-3.79"
         style="fill:#2fb4c5;fill-opacity:1;fill-rule:nonzero;stroke:none"
         id="path893" /><path
         d="m 4207.92,3967.33 -0.87,0.08 -215.04,37.59 c -2.73,0.48 -4.54,3.07 -4.06,5.79 0.46,2.73 3.1,4.5 5.78,4.06 l 215.04,-37.59 c 2.72,-0.48 4.54,-3.07 4.06,-5.79 -0.42,-2.43 -2.53,-4.14 -4.91,-4.14"
         style="fill:#2fb4c5;fill-opacity:1;fill-rule:nonzero;stroke:none"
         id="path895" /><path
         d="m 4238.61,4070.5 c -61.9,7.9 -153.11,20.5 -199.1,29.2 -11.41,2.1 -20,4 -24.71,5.6 -1.4,0.4 -2.5,0.8 -3.19,1.2 -1.41,1.6 -3.91,2.2 -5.9,1.1 -2.5,-1.2 -3.51,-4.2 -2.31,-6.7 0.4,-0.9 1.11,-2.3 8.9,-4.8 5,-1.5 12.9,-3.5 25.51,-6.1 30.5,-6.1 88.49,-15.3 199.49,-29.4 h 0.7 c 2.5,0 4.6,1.8 4.91,4.3 0.4,2.8 -1.61,5.3 -4.3,5.6"
         style="fill:#2fb4c5;fill-opacity:1;fill-rule:nonzero;stroke:none"
         id="path897" /><path
         d="M 3297.6,1923.7 C 3123.1,1195.8 3063.71,958.199 2892.91,727.898 2722.01,497.699 2603.21,471.699 2580.9,575.699 c -22.29,103.903 75.61,424.102 24.3,521.601 -52.39,99.9 -72.6,31.7 -198.8,-1.7 -46.89,-12.44 -93.77,-6.43 -135.51,-0.43 -70.68,10.17 -126.64,20.34 -142.98,-59.07 -26,-126.202 118.8,-493.901 66.79,-534.698 -15.59,-12.203 -32.59,-21.203 -51.2,-25.601 -84.6,-20.102 -202.39,53.101 -375.9,330.097 C 1556,1143.8 1288.61,1834.6 1210.6,2395.3 c -78,560.8 137.4,828.1 419.6,865.3 220.3,29 350.11,-82.3 498.81,-118.3 41.89,-10.3 85.2,-14.5 132.5,-8 215.4,29.7 204.3,297.1 623.9,196.8 419.69,-100.2 586.79,-679.6 412.19,-1407.4"
         style="fill:#ffffff;fill-opacity:1;fill-rule:nonzero;stroke:none"
         id="path899" /><path
         d="M 2143.5,475.801 C 2058.9,455.699 1941.11,528.902 1767.6,805.898 1556,1143.8 1288.61,1834.6 1210.6,2395.3 c -78,560.8 137.4,828.1 419.6,865.3 220.3,29 350.11,-82.3 498.81,-118.3 -177.9,2.3 -563.69,134.6 -720.18,-222.07 -251.07,-572.19 105.07,-1366.25 239.38,-1518.04 122.39,-138.3 123.99,-483.491 495.29,-926.389"
         style="fill:#efefed;fill-opacity:1;fill-rule:nonzero;stroke:none"
         id="path901" /><path
         d="m 2189.89,1145.41 c -94.55,0 -174.28,15.44 -159.31,101.55 10.65,61.2 51.08,75.37 111.56,75.37 26.08,0 55.88,-2.63 88.63,-5.27 32.75,-2.63 68.44,-5.26 106.3,-5.26 29.17,0 59.61,1.56 90.98,5.88 57.76,7.97 117.07,20.92 157.67,20.92 44.75,0 66.8,-15.72 39.08,-71.15 -12.56,-25.12 -142,-117.21 -276.29,-117.21 -48.18,0 -105.72,-4.83 -158.62,-4.83"
         style="fill:#f7f7f6;fill-opacity:1;fill-rule:nonzero;stroke:none"
         id="path903" /><path
         d="m 2988.06,2477.61 c -86.81,0 -157.18,66.8 -157.18,149.21 0,82.41 70.37,149.21 157.18,149.21 86.81,0 157.19,-66.8 157.19,-149.21 0,-82.41 -70.38,-149.21 -157.19,-149.21"
         style="fill:#fcdae0;fill-opacity:1;fill-rule:nonzero;stroke:none"
         id="path905" /><path
         d="m 1645.75,2344.04 c -38.28,108.33 -92.49,147.97 -218.57,147.97 -15.08,0 -31.19,-0.57 -48.42,-1.66 20.98,58.97 79.74,101.43 148.94,101.43 86.82,0 157.19,-66.8 157.19,-149.21 0,-37.76 -14.77,-72.25 -39.14,-98.53"
         style="fill:#fcdae0;fill-opacity:1;fill-rule:nonzero;stroke:none"
         id="path907" /><path
         d="m 2633,2737.08 h -1.58 c -5.5,0.41 -9.64,5.21 -9.22,10.72 0.56,7.54 15.09,184.54 99.57,178.81 82.04,-5.62 119.45,-140.98 121,-146.74 1.44,-5.33 -1.72,-10.82 -7.05,-12.25 -5.31,-1.48 -10.82,1.72 -12.26,7.04 -0.35,1.27 -35.2,127.35 -103.04,132 -54.44,3.8 -74.86,-114.49 -78.28,-160.35 -0.37,-4.98 -4.32,-8.83 -9.14,-9.23"
         style="fill:#213e58;fill-opacity:1;fill-rule:nonzero;stroke:none"
         id="path909" /><path
         d="m 1797.87,2668.49 1.55,0.25 c 5.36,1.3 8.66,6.71 7.35,12.08 -1.78,7.35 -45.01,179.61 -127.42,160.17 -80.02,-18.93 -94.83,-158.58 -95.43,-164.52 -0.54,-5.49 3.47,-10.39 8.96,-10.94 5.49,-0.59 10.4,3.47 10.94,8.96 0.14,1.3 13.96,131.38 80.13,147.04 53.09,12.63 92.53,-100.75 103.39,-145.43 1.17,-4.85 5.7,-8.01 10.53,-7.61"
         style="fill:#213e58;fill-opacity:1;fill-rule:nonzero;stroke:none"
         id="path911" /><path
         d="m 2678.68,2292.31 c -74.2,-123.89 -227.39,-230.99 -414,-247.39 -223.5,-19.6 -354.6,80.79 -415.09,207.1 -25.51,53.3 -38.51,111.09 -40.51,166.49 -6.8,186.81 110.8,270.2 339.4,145.8 180,-97.99 257.41,236.9 487.5,63.8 112.3,-84.49 113.4,-217.79 42.7,-335.8"
         style="fill:#f89d88;fill-opacity:1;fill-rule:nonzero;stroke:none"
         id="path913" /><path
         d="m 2754.89,2497.01 c 0,-49.07 -43.86,-88.85 -97.95,-88.85 -54.1,0 -97.96,39.78 -97.96,88.85 0,49.07 43.86,88.84 97.96,88.84 54.09,0 97.95,-39.77 97.95,-88.84"
         style="fill:#87d6c7;fill-opacity:1;fill-rule:nonzero;stroke:none"
         id="path915" /><path
         d="m 2795.47,2683.91 c 0,-23.27 -17.34,-42.14 -38.73,-42.14 -21.38,0 -38.73,18.87 -38.73,42.14 0,23.28 17.35,42.15 38.73,42.15 21.39,0 38.73,-18.87 38.73,-42.15"
         style="fill:#87d6c7;fill-opacity:1;fill-rule:nonzero;stroke:none"
         id="path917" /><path
         d="m 2087,2343.34 c 0,0 52.39,95.68 207.29,95.68 154.92,0 230.09,-107.07 227.82,-168.57 -2.29,-61.52 -170.86,-166.3 -284.76,-93.4 -113.91,72.89 -150.35,166.29 -150.35,166.29"
         style="fill:#f2596c;fill-opacity:1;fill-rule:nonzero;stroke:none"
         id="path919" /><path
         d="m 2678.68,2292.31 c -74.2,-123.89 -227.39,-230.99 -414,-247.39 -223.5,-19.6 -354.6,80.79 -415.09,207.1 14.6,24.89 90.79,-53.81 121.19,-38.51 31.9,15.9 -72.9,150.31 50.11,182.2 123.09,31.91 170.89,-182.2 225.59,-138.9 54.6,43.21 -4.6,93.4 70.61,132.1 75.19,38.71 113.89,-173.09 175.39,-125.3 55.6,43.2 137.3,122 186.2,28.7"
         style="fill:#87d6c7;fill-opacity:1;fill-rule:nonzero;stroke:none"
         id="path921" /><path
         d="m 3878.31,2220.6 c -35.5,-11.1 -75.31,-10 -116.01,4 -38.69,13.3 -60.1,34 -69.89,55.9 -8.4,18.5 -8.4,37.8 -3.51,54.1 2.81,9.1 7.21,17.7 13.11,25 10.4,12.8 25.1,21.6 42.5,21.6 4.5,0 9.2,-0.6 13.99,-1.8 38.3,-10.1 90.51,-41.8 111.6,-98.2 7.2,-19.1 9.91,-39.4 8.21,-60.6 z m 151.6,261.9 c -2.8,53.2 -22.9,106.9 -57.8,157.7 -36.4,53.1 -89.11,103.2 -155.4,146.7 -4.3,2.8 -8.71,5.6 -13.1,8.4 -30,18.8 -62,35.9 -95.61,51.1 -122.5,55.7 -267.1,87.6 -418.79,91.7 -9.3,0.3 -18.71,0.5 -28.1,0.5 H 3261 c -5.5,0 -9.89,-4.5 -10,-10 0,-5.5 4.5,-10 10,-10 12,-0.1 23.91,-0.3 35.61,-0.7 155.5,-5.1 293.09,-39.1 405,-90.3 39.5,-18.2 75.8,-38.4 108.59,-60.3 68.91,-46.1 122.1,-99.5 156.2,-155.3 26.2,-42.8 41.2,-87.1 43.51,-130.6 5.8,-107.1 -23.61,-190.8 -82.9,-235.6 -8.91,-6.7 -18.4,-12.5 -28.3,-17.1 0,1.9 0.09,3.7 0.09,5.5 -0.19,21.3 -4.5,39.4 -10,54 -23.7,63.6 -82.29,99.3 -125.19,110.5 -19.81,5.2 -39.6,1.8 -56.1,-8.3 -17.2,-10.3 -31,-27.7 -37.81,-50.1 -9.1,-30.1 -3.89,-65.2 21.3,-93.8 14.6,-16.5 35.8,-30.9 64.81,-40.8 40.9,-14 82,-16 119.39,-6.5 -5.9,-28.1 -19.09,-57.4 -39.39,-87.1 -18.21,-26.6 -44.7,-47.6 -75.21,-64.1 -57.69,-31.2 -130.19,-46.5 -190.4,-54 -11.89,-1.5 -23.59,-2.7 -35,-3.7 -62.9,-5.5 -117.2,-4.1 -147.9,-1.5 -13.5,1 -22.39,2.3 -25.69,3.3 -3.11,2.2 -7.4,2.5 -10.9,0.4 -4.71,-2.9 -6.2,-9 -3.41,-13.7 2.21,-3.7 5.91,-9.9 73.3,-11.9 5.91,-0.2 14.5,-0.3 25.11,-0.3 3.9,0 8.19,0 12.69,0.1 20,0.2 45.21,1.1 73.31,3.4 75.3,6.2 171.39,22.4 243.89,63.4 31.01,17.5 57.71,39.6 76.7,67.3 17.9,26.3 29.71,50.7 36.91,73.1 3.6,11.3 6.1,22 7.59,32.3 15,5.9 29.2,13.8 42.31,23.7 64.69,48.9 97,138.6 90.8,252.6"
         style="fill:#ffffff;fill-opacity:1;fill-rule:nonzero;stroke:none"
         id="path923" /><path
         d="m 1683.31,1026.1 c -60.61,-19.2 -263.11,-50.401 -263.61,-50.498 -68.89,-12.903 -277.59,-50.403 -373.8,-50.403 -116.197,0 -148.091,45.602 -163.99,143.501 -16.004,98 -36.504,280.2 -36.504,280.2 l 63.797,13.7 -68.297,314.4 -38.703,200.4 -75.195,-6.8 c 0,0 -43.301,141.2 -43.301,303 0,161.7 59.199,211.9 282.5,255.1 l -4.199,46.3 -4.903,54 326.905,52.9 13.9,-63.4 7.69,-34.9 c 225.91,26.1 297.5,-3.8 346.31,-158 48.8,-154.19 50.2,-301.9 50.2,-301.9 l -73.8,-16.2 23.6,-202.8 29.7,-320.39 65,6.19 c 0,0 35.4,-179.9 49.79,-278.1 14.31,-98.2 -2.29,-151.3 -113.09,-186.3"
         style="fill:#abe2db;fill-opacity:1;fill-rule:nonzero;stroke:none"
         id="path925" /><path
         d="m 1703.71,1094.6 c -53.4,-23.7 -247,-61.3 -486.2,-92.9 -239.104,-31.598 -243.1,-11.899 -264.811,33.6 -21.695,45.4 -51.394,294.5 -51.394,294.5 l 51.394,17.7 -116.59,579.1 c 0,0 -83.007,-13.8 -83.007,-7.9 0,0 -19.297,88.11 -26.797,182.4 l 42.597,23.1 228.106,10.4 204.702,9.4 420.3,147 c 30,-107.9 34.29,-237.9 34.29,-237.9 l -73.2,-19.8 65.3,-602.8 61.21,9.9 c 0,0 4.1,-25 9.8,-59.2 7.5,-45 18,-105.9 25.79,-146.3 13.81,-71.2 11.9,-116.6 -41.49,-140.3"
         style="fill:#5ac7b1;fill-opacity:1;fill-rule:nonzero;stroke:none"
         id="path927" /><path
         d="m 895.387,1928.46 c -4.914,0 -9.199,3.61 -9.895,8.61 -0.758,5.47 3.051,10.53 8.52,11.29 l 636.368,88.93 c 5.44,0.83 10.52,-3.04 11.29,-8.51 0.76,-5.47 -3.05,-10.53 -8.52,-11.29 l -636.369,-88.94 -1.394,-0.09"
         style="fill:#30b897;fill-opacity:1;fill-rule:nonzero;stroke:none"
         id="path929" /><path
         d="m 980.367,1327.65 c -4.91,0 -9.199,3.62 -9.89,8.62 -0.762,5.47 3.046,10.53 8.515,11.29 l 636.368,88.93 c 5.48,0.81 10.52,-3.04 11.29,-8.51 0.76,-5.47 -3.05,-10.53 -8.52,-11.29 l -636.364,-88.94 -1.399,-0.1"
         style="fill:#30b897;fill-opacity:1;fill-rule:nonzero;stroke:none"
         id="path931" /><path
         d="m 1046.52,986.25 c -72.809,0 -79.403,18.84 -93.821,49.05 -21.695,45.4 -51.394,294.5 -51.394,294.5 l 51.394,17.7 -116.59,579.1 c 0,0 -56.343,-9.37 -76.191,-9.37 -4.242,0 -6.816,0.43 -6.816,1.47 0,0 -19.297,88.11 -26.797,182.4 l 42.597,23.1 228.106,10.4 c 15.212,-40.98 45.472,-97.2 100.242,-157.84 l -203.238,-28.4 c -5.469,-0.76 -9.278,-5.82 -8.52,-11.29 0.696,-5 4.981,-8.61 9.895,-8.61 l 1.394,0.09 217.199,30.36 c 38.02,-39.14 86.39,-79.65 147.53,-118.71 166.52,-106.36 24,-338.18 105.78,-438.38 l -388.298,-54.26 c -5.469,-0.76 -9.277,-5.82 -8.515,-11.29 0.691,-5 4.98,-8.62 9.89,-8.62 l 1.399,0.1 404.174,56.49 c 26.07,-19.03 65.96,-30.12 126.28,-30.12 52.3,0 119.89,8.33 207.19,27.08 7.5,-45 18,-105.9 25.79,-146.3 4.45,-22.95 7.27,-43.21 7.26,-60.94 -0.03,-37.27 -12.56,-63.3 -48.75,-79.36 -53.4,-23.7 -247,-61.3 -486.2,-92.9 -80.34,-10.618 -134.15,-15.45 -170.99,-15.45 m 425.76,185.9 c -25.65,0 -46.44,-15.49 -46.44,-34.58 0,-19.1 20.79,-34.59 46.44,-34.59 25.65,0 46.45,15.49 46.45,34.59 0,19.09 -20.8,34.58 -46.45,34.58 m 161.84,126.01 c -46.97,0 -73.99,-47.64 -79.9,-95.27 -5.91,-47.63 9.3,-95.26 46.8,-95.26 0.62,0 1.25,0.01 1.89,0.03 94.86,3.96 164.03,158.11 51.38,187.76 -7.09,1.86 -13.81,2.74 -20.17,2.74"
         style="fill:#47c0a5;fill-opacity:1;fill-rule:nonzero;stroke:none"
         id="path933" /><path
         d="m 895.387,1928.46 c -4.914,0 -9.199,3.61 -9.895,8.61 -0.758,5.47 3.051,10.53 8.52,11.29 l 203.238,28.4 c 5.35,-5.91 10.92,-11.86 16.73,-17.85 l -217.199,-30.36 -1.394,-0.09"
         style="fill:#29b690;fill-opacity:1;fill-rule:nonzero;stroke:none"
         id="path935" /><path
         d="m 980.367,1327.65 c -4.91,0 -9.199,3.62 -9.89,8.62 -0.762,5.47 3.046,10.53 8.515,11.29 l 388.298,54.26 c 5.24,-6.42 11.42,-12.31 18.65,-17.58 l -404.174,-56.49 -1.399,-0.1"
         style="fill:#29b690;fill-opacity:1;fill-rule:nonzero;stroke:none"
         id="path937" /><path
         d="m 1601.02,1107.63 c -37.5,0 -52.71,47.63 -46.8,95.26 5.91,47.63 32.93,95.27 79.9,95.27 6.36,0 13.08,-0.88 20.17,-2.74 112.65,-29.65 43.48,-183.8 -51.38,-187.76 -0.64,-0.02 -1.27,-0.03 -1.89,-0.03"
         style="fill:#56c5b0;fill-opacity:1;fill-rule:nonzero;stroke:none"
         id="path939" /><path
         d="m 1472.28,1102.98 c -25.65,0 -46.44,15.49 -46.44,34.59 0,19.09 20.79,34.58 46.44,34.58 25.65,0 46.45,-15.49 46.45,-34.58 0,-19.1 -20.8,-34.59 -46.45,-34.59"
         style="fill:#56c5b0;fill-opacity:1;fill-rule:nonzero;stroke:none"
         id="path941" /><path
         d="m 731.363,2110.39 c -2.89,33.71 88.938,120.56 191.7,102.77 102.767,-17.78 167.987,-61.27 330.037,-7.91 162.06,53.36 351.79,158.11 369.57,84.98 17.8,-73.11 -270.75,-191.7 -513.84,-223.32 -243.084,-31.62 -371.537,-25.69 -377.467,43.48"
         style="fill:#6bccb7;fill-opacity:1;fill-rule:nonzero;stroke:none"
         id="path943" /><path
         d="m 697.367,1512.96 c 0,-102.39 75.18,-200.47 166.301,-189.08 116.074,14.51 150.352,70.62 118.457,93.39 -31.895,22.79 -77.449,27.35 -77.449,27.35 0,0 127.564,25.06 104.784,97.95 -22.772,72.9 -102.511,34.17 -102.511,34.17 0,0 127.571,50.12 72.903,113.9 -54.68,63.79 -282.485,-2.27 -282.485,-177.68"
         style="fill:#ffffff;fill-opacity:1;fill-rule:nonzero;stroke:none"
         id="path945" /><path
         d="m 962.008,2475 v 0 l -4.903,54 326.905,52.9 13.9,-63.4 c -115.61,-19.6 -264.3,-36.2 -335.902,-43.5"
         style="fill:#7fd3c5;fill-opacity:1;fill-rule:nonzero;stroke:none"
         id="path947" /><path
         d="m 1302.51,2570.9 c -15.8,-23.7 -264.81,-57.3 -326.108,-65.2 -61.203,-8 -80.996,1.9 -88.894,29.6 0,0 -7.903,100.8 -5.899,130.4 1.895,29.7 15.797,37.6 78.993,41.5 l 2.402,0.2 c 64.696,4.4 219.696,28.5 248.606,33.4 57.29,9.9 67.19,7.9 78.99,-49.4 4.5,-21.6 9.5,-40.7 13.2,-57.3 6.11,-27.5 8.5,-48.4 -1.29,-63.2"
         style="fill:#206b8f;fill-opacity:1;fill-rule:nonzero;stroke:none"
         id="path949" /><path
         d="m 1302.51,2570.9 c -15.8,-23.7 -264.81,-57.3 -326.108,-65.2 -61.203,-8 -80.996,1.9 -88.894,29.6 0,0 -7.903,100.8 -5.899,130.4 1.895,29.7 15.797,37.6 78.993,41.5 l 2.402,0.2 c 11.699,-52.3 73.906,-121.9 340.796,-73.3 6.11,-27.5 8.5,-48.4 -1.29,-63.2"
         style="fill:#134c67;fill-opacity:1;fill-rule:nonzero;stroke:none"
         id="path951" /><path
         d="m 3320.57,1325.55 c -5.19,-1.91 -10.93,0.75 -12.83,5.94 -2.35,6.42 -57.19,158.65 -17.33,288.47 1.63,5.3 7.22,8.24 12.5,6.63 5.28,-1.62 8.25,-7.22 6.63,-12.49 -37.91,-123.46 16.42,-274.21 16.97,-275.72 1.9,-5.2 -0.75,-10.93 -5.94,-12.83"
         style="fill:#ffffff;fill-opacity:1;fill-rule:nonzero;stroke:none"
         id="path953" /><path
         d="m 3842.06,1343.59 c -11.86,0 -873.53,88.93 -928.86,100.79 -55.34,11.86 -114.63,-51.38 -98.82,-59.29 15.81,-7.9 90.91,-59.29 221.35,-75.1 130.44,-15.81 875.5,-53.36 875.5,-53.36 l 5.93,69.17 -75.1,17.79"
         style="fill:#11a7b7;fill-opacity:1;fill-rule:nonzero;stroke:none"
         id="path955" /><path
         d="m 3320.6,1325.5 c -5.19,-1.9 -10.99,0.8 -12.9,6 -1.3,3.6 -18.8,52.3 -27.29,117.1 h 20.49 c 8.4,-62.6 25.31,-109.4 25.61,-110.2 1.89,-5.2 -0.7,-11 -5.91,-12.9"
         style="fill:#ffffff;fill-opacity:1;fill-rule:nonzero;stroke:none"
         id="path957" /><path
         d="m 4010.01,1537.3 c -3.9,-122.6 -75.1,-249 -75.1,-249 0,0 -27.61,-563.3 -45.4,-701.601 -1.11,-8.5 -2.21,-16.597 -3.51,-24.301 -18.89,-118.097 -55.99,-147.296 -148.7,-141.699 -98.8,5.903 -638.29,11.801 -804.3,55.301 -166.09,43.5 -152.19,57.301 -154.2,152.199 -2,94.801 35.61,756.901 35.61,756.901 0,0 71,-14.5 196,-32.8 70.59,-10.2 158.49,-21.7 260.49,-32.4 259.91,-27.3 632.41,-45.5 634.41,-27.7 1.99,17.8 -950.61,397.2 -976.3,405.1 -25.7,8 -31.6,53.4 55.29,162.1 87,108.7 172,183.8 270.8,164 98.8,-19.7 448.61,-124.5 604.7,-229.2 156.2,-104.8 154.21,-134.4 150.21,-256.9"
         style="fill:#57c8d9;fill-opacity:1;fill-rule:nonzero;stroke:none"
         id="path959" /><path
         d="m 3458.66,1590.62 c -25.65,-1.5 -104.75,225.31 -17.78,225.31 86.95,0 77.07,-118.59 77.07,-118.59 0,0 118.58,106.73 152.17,9.88 33.6,-96.83 -177.87,-114.61 -211.46,-116.6"
         style="fill:#7fd5e0;fill-opacity:1;fill-rule:nonzero;stroke:none"
         id="path961" /><path
         d="m 3757.49,420.051 c -6.42,0 -13.14,0.219 -20.19,0.648 -98.8,5.903 -638.29,11.801 -804.3,55.301 -145.3,38.059 -152.85,53.371 -153.81,120.148 -0.13,9.563 -0.13,20.172 -0.39,32.051 -0.05,2.449 -0.07,5.293 -0.07,8.481 -0.01,120.14 35.68,748.42 35.68,748.42 0,0 71,-14.5 196,-32.8 -36.2,-238 -62.71,-726.402 324,-757.3 C 3617.2,572.398 3788.9,564.699 3886,562.398 3868.54,453.289 3835.53,420.051 3757.49,420.051"
         style="fill:#48c3d9;fill-opacity:1;fill-rule:nonzero;stroke:none"
         id="path963" /><path
         d="M 3560.5,955.199 V 840.801 c 0,-39 -11.89,-75.199 -32.4,-105.199 -33.69,-49.5 -90.5,-82 -154.89,-82 -81.7,0 -151.2,52.296 -176.7,125.3 -6.81,19.399 -10.51,40.2 -10.51,61.899 v 114.398 c 0,15.403 12.5,27.903 27.9,27.903 h 318.7 c 15.4,0 27.9,-12.5 27.9,-27.903"
         style="fill:#f89d88;fill-opacity:1;fill-rule:nonzero;stroke:none"
         id="path965" /><path
         d="m 3528.1,735.602 c -33.69,-49.5 -90.5,-82 -154.89,-82 -81.7,0 -151.2,52.296 -176.7,125.3 48.99,31.899 198.19,129.2 331.59,-43.3"
         style="fill:#f2596c;fill-opacity:1;fill-rule:nonzero;stroke:none"
         id="path967" /><path
         d="m 3229.22,1103.4 c 0,-17.38 -14.09,-31.46 -31.46,-31.46 -17.37,0 -31.46,14.08 -31.46,31.46 0,17.37 14.09,31.45 31.46,31.45 17.37,0 31.46,-14.08 31.46,-31.45"
         style="fill:#213e58;fill-opacity:1;fill-rule:nonzero;stroke:none"
         id="path969" /><path
         d="m 3603.67,1087 c 0,-17.37 -14.08,-31.45 -31.46,-31.45 -17.37,0 -31.45,14.08 -31.45,31.45 0,17.37 14.08,31.46 31.45,31.46 17.38,0 31.46,-14.09 31.46,-31.46"
         style="fill:#213e58;fill-opacity:1;fill-rule:nonzero;stroke:none"
         id="path971" /><path
         d="m 3781.31,935.301 c 0,-45.289 -36.71,-82 -82,-82 -45.29,0 -82,36.711 -82,82 0,45.281 36.71,81.989 82,81.989 45.29,0 82,-36.708 82,-81.989"
         style="fill:#70d0e0;fill-opacity:1;fill-rule:nonzero;stroke:none"
         id="path973" /><path
         d="m 3133.5,984.5 c 0,-45.289 -36.71,-82 -81.99,-82 -45.29,0 -82,36.711 -82,82 0,45.28 36.71,82 82,82 45.28,0 81.99,-36.72 81.99,-82"
         style="fill:#70d0e0;fill-opacity:1;fill-rule:nonzero;stroke:none"
         id="path975" /></g></g></svg>
