<svg width="667" height="667" viewBox="0 0 667 667" fill="none" xmlns="http://www.w3.org/2000/svg">
<path d="M439.68 410.173C416.413 507.227 408.495 538.907 385.721 569.614C362.935 600.307 347.095 603.773 344.12 589.907C341.148 576.053 354.201 533.36 347.36 520.36C340.375 507.04 337.68 516.133 320.853 520.587C314.601 522.245 308.351 521.444 302.785 520.644C293.361 519.288 285.9 517.932 283.721 528.52C280.255 545.347 299.561 594.373 292.627 599.813C290.548 601.44 288.281 602.64 285.8 603.227C274.52 605.907 258.815 596.146 235.68 559.214C207.467 514.16 171.815 422.053 161.413 347.293C151.013 272.52 179.733 236.88 217.36 231.92C246.733 228.053 264.041 242.893 283.868 247.693C289.453 249.067 295.228 249.627 301.535 248.76C330.255 244.8 328.775 209.147 384.721 222.52C440.68 235.88 462.96 313.133 439.68 410.173" fill="white"/>
<path d="M219.433 354.128C214.329 339.684 207.101 334.399 190.291 334.399C188.28 334.399 186.132 334.475 183.835 334.62C186.632 326.757 194.467 321.096 203.693 321.096C215.269 321.096 224.652 330.003 224.652 340.991C224.652 346.025 222.683 350.624 219.433 354.128" fill="#FCDAE0"/>
<path d="M357.157 361.025C347.264 377.544 326.839 391.824 301.957 394.011C272.157 396.624 254.677 383.239 246.612 366.397C243.211 359.291 241.477 351.585 241.211 344.199C240.304 319.291 255.984 308.172 286.464 324.759C310.464 337.824 320.785 293.172 351.464 316.252C366.437 327.517 366.584 345.291 357.157 361.025" fill="#F89D88"/>
<path d="M367.319 333.732C367.319 340.275 361.471 345.579 354.259 345.579C347.045 345.579 341.197 340.275 341.197 333.732C341.197 327.189 347.045 321.887 354.259 321.887C361.471 321.887 367.319 327.189 367.319 333.732Z" fill="#87D6C7"/>
<path d="M278.267 354.221C278.267 354.221 285.252 341.464 305.905 341.464C326.561 341.464 336.584 355.74 336.281 363.94C335.976 372.143 313.5 386.113 298.313 376.393C283.125 366.675 278.267 354.221 278.267 354.221" fill="#F2596C"/>
<path d="M357.157 361.025C347.264 377.544 326.839 391.824 301.957 394.011C272.157 396.624 254.677 383.239 246.612 366.397C248.559 363.079 258.717 373.572 262.771 371.532C267.024 369.412 253.051 351.491 269.452 347.239C285.864 342.984 292.237 371.532 299.531 365.759C306.811 359.997 298.917 353.305 308.945 348.145C318.971 342.984 324.131 371.224 332.331 364.852C339.744 359.092 350.637 348.585 357.157 361.025" fill="#87D6C7"/>
<path d="M224.441 529.853C216.36 532.413 189.36 536.573 189.293 536.586C180.108 538.307 152.281 543.307 139.453 543.307C123.96 543.307 119.708 537.226 117.588 524.173C115.454 511.107 112.721 486.813 112.721 486.813L121.227 484.987L112.121 443.067L106.96 416.347L96.9344 417.253C96.9344 417.253 91.1609 398.427 91.1609 376.853C91.1609 355.293 99.0541 348.6 128.828 342.84L128.268 336.667L127.614 329.467L171.201 322.413L173.055 330.867L174.08 335.52C204.201 332.04 213.747 336.027 220.255 356.587C226.761 377.145 226.948 396.84 226.948 396.84L217.108 399L220.255 426.04L224.215 468.759L232.881 467.933C232.881 467.933 237.601 491.92 239.52 505.013C241.428 518.107 239.215 525.187 224.441 529.853" fill="#ABE2DB"/>
<path d="M227.161 520.72C220.041 523.88 194.228 528.893 162.335 533.107C130.454 537.32 129.921 534.693 127.027 528.627C124.134 522.573 120.174 489.36 120.174 489.36L127.027 487L111.481 409.787C111.481 409.787 100.414 411.627 100.414 410.84C100.414 410.84 97.8407 399.092 96.8407 386.52L102.52 383.44L132.934 382.053L160.228 380.8L216.268 361.2C220.268 375.587 220.84 392.92 220.84 392.92L211.08 395.56L219.787 475.933L227.948 474.613C227.948 474.613 228.495 477.947 229.255 482.507C230.255 488.507 231.655 496.627 232.693 502.013C234.535 511.507 234.28 517.56 227.161 520.72" fill="#5AC7B1"/>
<path d="M119.385 409.539C118.73 409.539 118.158 409.057 118.066 408.391C117.965 407.661 118.472 406.987 119.202 406.885L204.051 395.028C204.776 394.917 205.453 395.433 205.556 396.163C205.657 396.892 205.149 397.567 204.42 397.668L119.571 409.527L119.385 409.539" fill="#30B897"/>
<path d="M130.716 489.647C130.061 489.647 129.489 489.164 129.397 488.497C129.295 487.768 129.803 487.093 130.532 486.992L215.381 475.135C216.112 475.027 216.784 475.54 216.887 476.269C216.988 476.999 216.48 477.673 215.751 477.775L130.902 489.633L130.716 489.647" fill="#30B897"/>
<path d="M119.385 409.539C118.73 409.539 118.158 409.057 118.066 408.391C117.965 407.661 118.472 406.987 119.202 406.885L146.3 403.099C147.013 403.887 147.756 404.68 148.531 405.479L119.571 409.527L119.385 409.539" fill="#29B690"/>
<path d="M130.716 489.647C130.061 489.647 129.489 489.164 129.397 488.497C129.295 487.768 129.803 487.093 130.532 486.992L182.305 479.757C183.004 480.613 183.828 481.399 184.792 482.101L130.902 489.633L130.716 489.647" fill="#29B690"/>
<path d="M213.469 518.983C208.469 518.983 206.441 512.632 207.229 506.281C208.017 499.931 211.62 493.579 217.883 493.579C218.731 493.579 219.627 493.696 220.572 493.944C235.592 497.897 226.369 518.451 213.721 518.979C213.636 518.981 213.552 518.983 213.469 518.983Z" fill="#56C5B0"/>
<path d="M97.5151 385.281C97.1297 380.787 109.373 369.207 123.075 371.579C136.777 373.949 145.473 379.748 167.08 372.633C188.688 365.519 213.985 351.552 216.356 361.303C218.729 371.051 180.256 386.863 147.844 391.079C115.433 395.295 98.3057 394.504 97.5151 385.281" fill="#6BCCB7"/>
<path d="M92.9823 464.939C92.9823 478.591 103.006 491.668 115.156 490.149C130.632 488.215 135.203 480.733 130.95 477.697C126.697 474.659 120.623 474.051 120.623 474.051C120.623 474.051 137.632 470.709 134.595 460.991C131.558 451.271 120.927 456.435 120.927 456.435C120.927 456.435 137.936 449.752 130.647 441.248C123.356 432.743 92.9823 441.551 92.9823 464.939" fill="white"/>
<path d="M128.268 336.667L127.614 329.467L171.201 322.413L173.055 330.867C157.64 333.48 137.815 335.693 128.268 336.667Z" fill="#7FD3C5"/>
<path d="M173.668 323.88C171.561 327.04 138.36 331.52 130.187 332.573C122.027 333.64 119.387 332.32 118.334 328.627C118.334 328.627 117.281 315.187 117.548 311.24C117.801 307.28 119.654 306.227 128.08 305.707L128.401 305.68C137.027 305.093 157.693 301.88 161.548 301.227C169.187 299.907 170.507 300.173 172.08 307.813C172.68 310.693 173.347 313.24 173.84 315.453C174.655 319.12 174.973 321.907 173.668 323.88" fill="#206B8F"/>
<path d="M173.668 323.88C171.561 327.04 138.36 331.52 130.187 332.573C122.027 333.64 119.387 332.32 118.334 328.627C118.334 328.627 117.281 315.187 117.548 311.24C117.801 307.28 119.654 306.227 128.08 305.707L128.401 305.68C129.96 312.653 138.255 321.933 173.84 315.453C174.655 319.12 174.973 321.907 173.668 323.88" fill="#134C67"/>
<path d="M398.408 336.319C386.833 336.319 377.451 327.412 377.451 316.424C377.451 305.436 386.833 296.529 398.408 296.529C409.983 296.529 419.367 305.436 419.367 316.424C419.367 327.412 409.983 336.319 398.408 336.319Z" fill="#FCDAE0"/>
<path d="M351.067 301.723H350.856C350.123 301.668 349.571 301.028 349.627 300.293C349.701 299.288 351.639 275.688 362.903 276.452C373.841 277.201 378.829 295.249 379.036 296.017C379.228 296.728 378.807 297.46 378.096 297.651C377.388 297.848 376.653 297.421 376.461 296.712C376.415 296.543 371.768 279.732 362.723 279.112C355.464 278.605 352.741 294.377 352.285 300.492C352.236 301.156 351.709 301.669 351.067 301.723Z" fill="#213E58"/>
<path d="M239.716 310.868L239.923 310.835C240.637 310.661 241.077 309.94 240.903 309.224C240.665 308.244 234.901 285.276 223.913 287.868C213.244 290.392 211.269 309.012 211.189 309.804C211.117 310.536 211.652 311.189 212.384 311.263C213.116 311.341 213.771 310.8 213.843 310.068C213.861 309.895 215.704 292.551 224.527 290.463C231.605 288.779 236.864 303.896 238.312 309.853C238.468 310.5 239.072 310.921 239.716 310.868Z" fill="#213E58"/>
<path d="M577.24 140.707C571.868 162.68 566.495 195.88 543.548 260.347C532.761 290.613 522.52 348.893 514.693 402.187C507.68 449.893 502.601 493.613 500.8 509.693C500.335 513.907 500.08 516.227 500.08 516.227L452.721 508.413C452.721 508.413 453.4 504.533 454.561 497.813C459.988 466.64 476.013 374.48 484.453 326.267C494.708 267.667 514.24 253.507 519.615 225.187C520.281 221.707 521.12 217.147 522.095 211.84C529.041 173.987 542.573 97.7334 542.573 97.7334C542.573 97.7334 558.201 80.1467 574.8 87.4801C591.4 94.8001 582.615 118.733 577.24 140.707" fill="#2FB4C5"/>
<path d="M482.256 81.684C481.655 81.4826 476.843 79.2787 476.643 83.088C476.443 86.8973 479.849 89.504 478.648 90.5066C477.445 91.5093 471.831 91.108 473.233 95.1173C474.637 99.128 477.845 107.348 476.241 109.755C474.637 112.16 467.419 113.964 467.619 118.777C467.82 123.588 473.033 126.796 471.229 128.801C469.424 130.807 463.008 130.205 463.611 131.809C464.212 133.413 465.215 134.616 465.215 134.616C465.215 134.616 459.399 135.217 461.404 137.023C463.409 138.827 465.616 143.037 465.013 143.439C464.412 143.84 457.795 142.636 457.595 144.441C457.395 146.245 461.404 151.459 461.404 152.661C461.404 153.864 454.988 154.667 454.988 157.273C454.988 159.879 458.196 162.285 457.996 163.288C457.795 164.291 450.979 164.091 450.377 166.496C449.776 168.901 455.789 172.711 455.389 174.115C454.988 175.519 450.377 178.927 449.976 181.733C449.575 184.541 457.395 191.959 456.191 193.363C454.988 194.767 447.971 189.553 447.569 194.165C447.169 198.776 453.785 202.787 452.784 204.591C451.781 206.396 444.161 209.604 445.965 212.611C447.771 215.619 485.865 231.257 485.865 231.257L506.917 220.231L537.595 111.157L507.519 93.1133L482.256 81.684" fill="white"/>
<path d="M572.281 110.155C572.281 110.155 546.817 96.12 543.811 94.916C540.803 93.7147 478.848 79.2787 479.248 81.0827C479.649 82.8867 530.977 110.155 532.983 110.155C534.988 110.155 574.687 111.157 572.281 110.155Z" fill="#76D2DD"/>
<path d="M535.589 108.351C535.589 108.351 528.572 110.957 529.375 112.761C530.176 114.567 532.581 117.775 531.379 119.78C530.176 121.784 526.367 121.583 526.167 124.792C525.965 128 529.173 129.604 528.172 131.408C527.169 133.212 521.555 132.211 521.153 136.22C520.752 140.231 524.763 141.232 523.359 143.639C521.955 146.045 516.944 145.644 515.941 148.451C514.939 151.259 519.348 152.461 518.345 155.869C517.344 159.277 510.125 158.677 509.925 163.488C509.725 168.3 513.735 171.108 512.532 172.912C511.329 174.716 505.113 172.711 504.913 176.32C504.713 179.929 508.723 185.944 507.72 187.348C506.717 188.752 500.703 187.548 498.697 193.964C496.692 200.38 502.307 205.192 501.304 207.197C500.301 209.203 491.68 210.005 492.681 213.413C493.684 216.821 499.099 215.017 498.096 218.024C497.093 221.032 485.865 231.257 485.865 231.257C485.865 231.257 531.379 230.456 536.191 231.457C541.004 232.46 542.808 231.457 543.811 226.647C544.812 221.835 570.075 137.424 571.679 128.2C573.284 118.977 577.093 112.16 572.281 110.155C567.469 108.149 535.589 108.351 535.589 108.351" fill="#96DCE4"/>
<path d="M488.341 197.732C488.341 199.748 486.979 201.383 485.299 201.383C483.619 201.383 482.256 199.748 482.256 197.732C482.256 195.716 483.619 194.081 485.299 194.081C486.979 194.081 488.341 195.716 488.341 197.732Z" fill="#213E58"/>
<path d="M534.589 223.103L534.531 223.1C504.012 220.472 503.451 219.911 503.239 219.699C502.979 219.439 502.979 219.016 503.239 218.756C503.46 218.536 503.793 218.501 504.052 218.655C505.512 219.135 523.095 220.777 534.645 221.772C535.012 221.803 535.284 222.125 535.252 222.493C535.223 222.84 534.931 223.103 534.589 223.103" fill="#2FB4C5"/>
<path d="M538.396 208.065C538.212 208.065 538.044 207.989 537.924 207.868C536.199 207.156 518.904 204.669 508.233 203.247C507.869 203.199 507.613 202.863 507.661 202.499C507.711 202.132 508.049 201.88 508.411 201.925C539.063 206.012 539.063 206.655 539.063 207.399C539.063 207.767 538.765 208.065 538.396 208.065Z" fill="#2FB4C5"/>
<path d="M542.208 188.416L542.12 188.411L514.251 184.801C513.887 184.755 513.628 184.42 513.675 184.055C513.724 183.689 514.052 183.439 514.423 183.479L542.292 187.088C542.657 187.135 542.915 187.469 542.868 187.835C542.824 188.171 542.537 188.416 542.208 188.416" fill="#2FB4C5"/>
<path d="M546.017 176.787L545.908 176.777L519.041 172.367C518.677 172.308 518.432 171.964 518.492 171.601C518.552 171.237 518.895 170.987 519.257 171.052L546.124 175.463C546.488 175.521 546.733 175.865 546.673 176.228C546.62 176.555 546.339 176.787 546.017 176.787Z" fill="#2FB4C5"/>
<path d="M552.632 165.76L552.483 165.743L522.007 158.725C521.649 158.643 521.425 158.284 521.507 157.925C521.591 157.567 521.945 157.344 522.307 157.425L552.783 164.443C553.14 164.525 553.364 164.884 553.283 165.243C553.211 165.551 552.937 165.76 552.632 165.76Z" fill="#2FB4C5"/>
<path d="M556.041 152.325L555.881 152.307L526.007 144.888C525.648 144.799 525.431 144.437 525.519 144.08C525.608 143.724 525.967 143.507 526.327 143.593L556.201 151.012C556.56 151.1 556.777 151.463 556.688 151.82C556.613 152.123 556.34 152.325 556.041 152.325Z" fill="#2FB4C5"/>
<path d="M561.056 137.689L560.94 137.679L532.268 132.667C531.904 132.603 531.663 132.257 531.727 131.895C531.788 131.531 532.14 131.295 532.497 131.353L561.169 136.365C561.532 136.429 561.775 136.775 561.711 137.137C561.655 137.461 561.373 137.689 561.056 137.689" fill="#2FB4C5"/>
<path d="M565.148 123.933C556.895 122.88 544.733 121.2 538.601 120.04C537.08 119.76 535.935 119.507 535.307 119.293C535.12 119.24 534.973 119.187 534.881 119.133C534.693 118.92 534.36 118.84 534.095 118.987C533.761 119.147 533.627 119.547 533.787 119.88C533.84 120 533.935 120.187 534.973 120.52C535.64 120.72 536.693 120.987 538.375 121.333C542.441 122.147 550.173 123.373 564.973 125.253H565.067C565.4 125.253 565.68 125.013 565.721 124.68C565.775 124.307 565.507 123.973 565.148 123.933" fill="#2FB4C5"/>
<path d="M477.937 216.331L477.755 216.324C475.133 216.149 473.688 212.545 472.94 209.583C471.689 211.145 469.929 212.821 467.991 213.072C467.083 213.193 465.724 213.051 464.445 211.701C460.227 207.248 464.26 199.463 464.433 199.133C464.779 198.483 465.584 198.236 466.232 198.577C466.885 198.92 467.135 199.725 466.792 200.377C466.759 200.441 463.476 206.801 466.38 209.867C466.921 210.439 467.345 210.469 467.647 210.428C469.375 210.205 471.637 207.033 472.463 205.531C472.739 205.028 473.304 204.757 473.873 204.861C474.439 204.965 474.873 205.419 474.952 205.987C475.497 209.868 476.945 213.597 477.932 213.664H477.951C478.8 213.664 480.712 209.825 481.757 205.272C481.923 204.555 482.64 204.112 483.355 204.271C484.072 204.436 484.52 205.151 484.356 205.869C483.628 209.043 481.563 216.329 477.937 216.331" fill="#213E58"/>
<path d="M472.777 190.451C472.777 192.467 471.415 194.101 469.735 194.101C468.055 194.101 466.692 192.467 466.692 190.451C466.692 188.435 468.055 186.8 469.735 186.8C471.415 186.8 472.777 188.435 472.777 190.451Z" fill="#213E58"/>
<path d="M512.275 487.521C510.693 487.521 395.804 475.664 388.427 474.083C381.048 472.501 373.143 480.933 375.251 481.988C377.359 483.041 387.372 489.893 404.764 492.001C422.156 494.109 521.497 499.116 521.497 499.116L522.288 489.893L512.275 487.521" fill="#11A7B7"/>
<path d="M534.668 461.693C534.148 478.04 524.655 494.893 524.655 494.893C524.655 494.893 520.973 570 518.601 588.44C518.453 589.573 518.307 590.653 518.133 591.68C515.615 607.427 510.668 611.32 498.307 610.573C485.133 609.786 413.201 609 391.067 603.2C368.921 597.4 370.775 595.56 370.507 582.907C370.24 570.267 375.255 481.987 375.255 481.987C375.255 481.987 384.721 483.92 401.388 486.36C410.8 487.72 422.52 489.253 436.12 490.68C470.775 494.32 520.441 496.747 520.708 494.373C520.973 492 393.96 441.413 390.535 440.36C387.108 439.293 386.321 433.24 397.907 418.747C409.507 404.253 420.84 394.24 434.013 396.88C447.187 399.507 493.828 413.48 514.64 427.44C535.467 441.413 535.201 445.36 534.668 461.693" fill="#57C8D9"/>
<path d="M461.155 454.584C457.735 454.784 447.188 424.543 458.784 424.543C470.377 424.543 469.06 440.355 469.06 440.355C469.06 440.355 484.871 426.124 489.349 439.037C493.829 451.948 465.633 454.319 461.155 454.584" fill="#7FD5E0"/>
<path d="M474.733 539.307V554.56C474.733 559.76 473.148 564.586 470.413 568.586C465.921 575.186 458.347 579.52 449.761 579.52C438.868 579.52 429.601 572.547 426.201 562.813C425.293 560.227 424.8 557.453 424.8 554.56V539.307C424.8 537.253 426.467 535.586 428.52 535.586H471.013C473.067 535.586 474.733 537.253 474.733 539.307" fill="#F89D88"/>
<path d="M470.413 568.586C465.921 575.186 458.347 579.52 449.761 579.52C438.868 579.52 429.601 572.547 426.201 562.813C432.733 558.56 452.627 545.586 470.413 568.586" fill="#F2596C"/>
<path d="M430.563 519.547C430.563 521.864 428.684 523.741 426.368 523.741C424.052 523.741 422.173 521.864 422.173 519.547C422.173 517.231 424.052 515.353 426.368 515.353C428.684 515.353 430.563 517.231 430.563 519.547Z" fill="#213E58"/>
<path d="M480.489 521.733C480.489 524.049 478.612 525.927 476.295 525.927C473.979 525.927 472.101 524.049 472.101 521.733C472.101 519.417 473.979 517.539 476.295 517.539C478.612 517.539 480.489 519.417 480.489 521.733Z" fill="#213E58"/>
<path d="M504.175 541.96C504.175 547.998 499.28 552.893 493.241 552.893C487.203 552.893 482.308 547.998 482.308 541.96C482.308 535.922 487.203 531.028 493.241 531.028C499.28 531.028 504.175 535.922 504.175 541.96Z" fill="#70D0E0"/>
<path d="M417.8 535.4C417.8 541.439 412.905 546.333 406.868 546.333C400.829 546.333 395.935 541.439 395.935 535.4C395.935 529.363 400.829 524.467 406.868 524.467C412.905 524.467 417.8 529.363 417.8 535.4Z" fill="#70D0E0"/>
<path d="M318.527 202.457C318.149 202.457 317.775 202.291 317.52 201.964C313.173 196.383 294.604 171.672 302.864 166.916C304.037 166.24 305.193 165.945 306.316 165.945C312.088 165.945 317.015 173.736 319.191 177.797C319.433 178.249 319.875 178.472 320.316 178.472C320.78 178.472 321.244 178.225 321.479 177.74C323.524 173.496 328.248 165.241 334.035 165.241C335.457 165.241 336.941 165.739 338.468 166.916C347.252 173.692 324.605 196.964 319.431 202.084C319.177 202.335 318.851 202.457 318.527 202.457" fill="#99DDE9"/>
<path d="M86.5355 326.725C86.2697 326.725 86.0005 326.643 85.7677 326.468C80.1151 322.213 55.7443 303.2 62.4787 296.455C63.9495 294.981 65.6145 294.387 67.3427 294.387C72.5115 294.387 78.2489 299.7 81.0776 302.701C81.3391 302.979 81.6724 303.104 82.0011 303.104C82.5817 303.104 83.1479 302.709 83.2713 302.049C84.2188 296.996 87 286.496 93.7479 286.496C94.7011 286.496 95.7323 286.705 96.8495 287.169C107.097 291.42 91.3027 319.793 87.6437 326.085C87.4027 326.5 86.974 326.725 86.5355 326.725" fill="#99DDE9"/>
<path d="M203.48 138.067C203.292 138.067 203.1 138.025 202.917 137.936C196.561 134.831 169.027 120.783 174.36 112.883C175.884 110.627 178.019 109.783 180.357 109.783C185.152 109.783 190.804 113.328 193.807 115.491C194.04 115.659 194.297 115.735 194.549 115.735C195.217 115.735 195.84 115.199 195.837 114.433C195.807 108.964 196.647 97.0533 204.513 97.0533C205.087 97.0533 205.697 97.116 206.347 97.2493C217.216 99.4813 207.087 130.333 204.685 137.204C204.499 137.74 204.004 138.067 203.48 138.067" fill="#99DDE9"/>
<path d="M369.227 614.697C268.276 614.697 186.44 609.665 186.44 603.46C186.44 599.312 204.841 593.616 258.939 590.291C268.259 599.883 275.877 603.643 282.223 603.643C283.463 603.643 284.655 603.498 285.8 603.227C288.281 602.64 290.548 601.44 292.627 599.813C294.367 598.448 294.455 594.34 293.664 588.684C308.479 588.188 325.132 587.839 343.796 587.677C343.868 588.484 343.976 589.231 344.12 589.907C345.199 594.934 347.967 597.683 352.144 597.683C356.633 597.683 362.749 594.508 370.14 587.576C370.281 587.576 370.424 587.576 370.565 587.576C370.721 596.144 371.985 598.203 391.067 603.2C413.201 609 485.133 609.786 498.307 610.573C499.247 610.631 500.143 610.66 500.999 610.66C510.48 610.66 514.976 606.983 517.46 595.325C539.179 598.04 552.012 601.019 552.012 603.46C552.012 609.665 470.176 614.697 369.227 614.697" fill="#41BBCA"/>
</svg>
